HIERARCHY
ROOT root
{
	OFFSET	0	13.1	24.9
	CHANNELS 6  Xposition Yposition Zposition Xrotation Yrotation Zrotation
	JOINT spine_1
	{
		OFFSET	0	9.99999	0
		CHANNELS 3  Xrotation Yrotation Zrotation
		JOINT spine_2
		{
			OFFSET	0	112	-10
			CHANNELS 3  Xrotation Yrotation Zrotation
			JOINT spine_3
			{
				OFFSET	0	206.5	19.3
				CHANNELS 3  Xrotation Yrotation Zrotation
				JOINT spine_4
				{
					OFFSET	0	110.4	14.6
					CHANNELS 3  Xrotation Yrotation Zrotation
					JOINT neck_1
					{
						OFFSET	0	71.8	-50.3
						CHANNELS 3  Xrotation Yrotation Zrotation
						JOINT neck_2
						{
							OFFSET	0	86.2	-25.8
							CHANNELS 3  Xrotation Yrotation Zrotation
							JOINT head_ee
							{
								OFFSET	0	179.8	-8.7
								CHANNELS 3  Xrotation Yrotation Zrotation
								End Site
								{
									OFFSET	1	0	0
								}
							}
						}
					}
					JOINT left_clavicle
					{
						OFFSET	-43.2	22.4	-70.8
						CHANNELS 3  Xrotation Yrotation Zrotation
						JOINT left_shoulder
						{
							OFFSET	-93.9	-5.79999	48.7
							CHANNELS 3  Xrotation Yrotation Zrotation
							JOINT left_elbow
							{
								OFFSET	-291.4	-30.8	15.2
								CHANNELS 3  Xrotation Yrotation Zrotation
								JOINT left_lowarm_twist
								{
									OFFSET	-110.7	-3.89999	13.6
									CHANNELS 3  Xrotation Yrotation Zrotation
									JOINT left_hand
									{
										OFFSET	-110.7	-3.89999	13.6
										CHANNELS 3  Xrotation Yrotation Zrotation
										JOINT left_ee
										{
											OFFSET	-80.8	-5.10001	12.1
											CHANNELS 3  Xrotation Yrotation Zrotation
											End Site
											{
												OFFSET	1	0	0
											}
										}
									}
								}
							}
						}
					}
					JOINT right_clavicle
					{
						OFFSET	43.2	22.4	-70.8
						CHANNELS 3  Xrotation Yrotation Zrotation
						JOINT right_shoulder
						{
							OFFSET	93.9	-5.79999	48.7
							CHANNELS 3  Xrotation Yrotation Zrotation
							JOINT right_elbow
							{
								OFFSET	291.4	-30.8	15.2
								CHANNELS 3  Xrotation Yrotation Zrotation
								JOINT right_lowarm_twist
								{
									OFFSET	110.7	-3.89999	13.6
									CHANNELS 3  Xrotation Yrotation Zrotation
									JOINT right_hand
									{
										OFFSET	110.7	-3.89999	13.6
										CHANNELS 3  Xrotation Yrotation Zrotation
										JOINT right_ee
										{
											OFFSET	80.8	-5.10001	12.1
											CHANNELS 3  Xrotation Yrotation Zrotation
											End Site
											{
												OFFSET	1	0	0
											}
										}
									}
								}
							}
						}
					}
				}
			}
		}
	}
	JOINT left_hip
	{
		OFFSET	-82.8	-127.5	0.300001
		CHANNELS 3  Xrotation Yrotation Zrotation
		JOINT left_knee
		{
			OFFSET	-28.2	-396.7	2.2
			CHANNELS 3  Xrotation Yrotation Zrotation
			JOINT left_ankle
			{
				OFFSET	-11.7	-411.3	35.4
				CHANNELS 3  Xrotation Yrotation Zrotation
				JOINT left_toes
				{
					OFFSET	0	-60	-88.6
					CHANNELS 3  Xrotation Yrotation Zrotation
					JOINT left_foot_ee
					{
						OFFSET	-22.5	-16.5	-42.2
						CHANNELS 3  Xrotation Yrotation Zrotation
						End Site
						{
							OFFSET	1	0	0
						}
					}
				}
			}
		}
	}
	JOINT right_hip
	{
		OFFSET	82.8	-127.5	0.300001
		CHANNELS 3  Xrotation Yrotation Zrotation
		JOINT right_knee
		{
			OFFSET	28.2	-396.7	2.2
			CHANNELS 3  Xrotation Yrotation Zrotation
			JOINT right_ankle
			{
				OFFSET	11.7	-411.3	35.4
				CHANNELS 3  Xrotation Yrotation Zrotation
				JOINT right_toes
				{
					OFFSET	0	-60	-88.6
					CHANNELS 3  Xrotation Yrotation Zrotation
					JOINT right_foot_ee
					{
						OFFSET	22.5	-16.5	-42.2
						CHANNELS 3  Xrotation Yrotation Zrotation
						End Site
						{
							OFFSET	1	0	0
						}
					}
				}
			}
		}
	}
}
MOTION
Frames: 9
Frame Time: 0.02
2290.28 755.792 -788.561 -170.975 -47.5408 -174.557 5.21238 0.262188 0.823268 5.21273 0.209271 0.838282 5.21546 0.106805 0.85738 5.21452 0.240868 0.829755 -15.3988 -0.545669 -2.87377 -15.376 0.643913 -2.89382 -0.0 0.0 -0.0 4.6991 12.0545 9.32981 -8.83155 -26.456 53.8318 1.12291 -29.0844 0.291295 -1.93837 -0.0723173 0.236949 -2.66236 7.28755 -14.4264 -0.0 0.0 -0.0 5.16232 15.15 -9.17976 -32.9569 21.603 -70.1711 0.558633 15.4686 -0.0758711 56.5168 1.47382 6.77747 0.501916 -13.2034 -8.60634 0.0 0.0 0.0 9.39104 2.32977 6.48209 -8.8628 0.262199 1.33354 18.6477 16.2846 -2.59384 36.8231 -0.0 -0.0 -0.0 0.0 -0.0 33.2957 13.3758 3.33256 -55.0705 1.69186 -7.96042 -24.6311 -21.209 -3.79583 35.6192 -0.0 -0.0 0.0 0.0 0.0 
2302.45 755.231 -788.838 -171.735 -46.9475 -175.932 4.98357 0.262089 0.82377 4.98392 0.209141 0.838776 4.98668 0.103189 0.858275 4.98573 0.237438 0.83121 -18.5736 -0.887531 -3.77558 -18.5337 0.303969 -3.8665 -0.0 0.0 -0.0 4.62879 12.4426 9.21226 -8.05861 -26.1146 53.2703 1.29514 -32.6817 0.379743 -2.845 -0.108889 0.346919 -2.62263 5.75104 -14.9402 -0.0 0.0 -0.0 5.15156 15.4529 -9.13411 -32.9779 21.7994 -69.9832 0.561204 15.5363 -0.0765582 56.7342 1.49196 6.79862 0.45447 -12.9023 -8.19006 0.0 0.0 0.0 8.87658 1.94962 7.0592 -9.16237 0.267436 1.37921 21.2902 16.2962 -2.92762 36.6845 -0.0 -0.0 -0.0 0.0 -0.0 34.8584 12.177 3.43713 -52.863 1.48055 -7.69382 -24.1305 -21.5895 -3.72432 34.5225 -0.0 -0.0 0.0 0.0 0.0 
2317.06 756.068 -792.26 -170.543 -46.994 -174.901 4.92984 0.173818 0.724061 4.93012 0.127394 0.733654 4.93151 0.0344281 0.743835 4.93077 0.151468 0.729064 -20.0776 -0.961653 -3.45672 -20.0439 -0.102197 -3.61285 -0.0 0.0 -0.0 4.92354 12.8599 9.71009 -6.80402 -26.0618 52.7096 1.42289 -35.1763 0.451062 -3.44381 -0.133997 0.419234 -2.64283 4.57804 -15.6707 -0.0 0.0 -0.0 5.07106 14.3663 -9.04292 -33.9474 21.6429 -68.6621 0.545617 15.1248 -0.0724372 56.8043 1.49783 6.80543 0.397613 -12.5515 -7.69367 0.0 0.0 0.0 8.91478 2.55358 7.93345 -8.85918 0.262134 1.33299 23.129 16.5465 -3.15597 36.4626 -0.0 -0.0 -0.0 0.0 -0.0 35.6026 11.3842 3.82124 -50.898 1.30127 -7.44993 -23.4282 -21.7811 -3.61862 33.7824 -0.0 -0.0 0.0 0.0 0.0 
2333.29 756.354 -792.879 -170.473 -46.8111 -174.658 4.97174 0.149406 0.684132 4.972 0.105571 0.692252 4.97305 0.0184735 0.700011 4.97239 0.128793 0.68831 -21.179 -1.34421 -3.23856 -21.1507 -1.01469 -3.59115 -0.0 0.0 -0.0 5.05887 13.1214 9.93638 -5.8594 -26.8693 52.7799 1.58892 -38.2035 0.550297 -5.48883 -0.225427 0.664173 -2.67394 4.96029 -15.6904 -0.0 0.0 -0.0 5.11611 15.5234 -9.05304 -34.5971 21.0443 -68.523 0.506675 14.0899 -0.0626158 57.1576 1.52751 6.83962 0.35023 -12.2728 -7.28418 0.0 0.0 0.0 7.35218 1.115 8.90132 -8.21285 0.250015 1.23455 26.2082 17.6103 -3.53499 36.3761 -0.0 -0.0 -0.0 0.0 -0.0 38.9489 11.624 2.33825 -43.4603 0.701455 -6.47577 -25.0406 -23.0848 -3.88937 29.5587 -0.0 -0.0 0.0 0.0 0.0 
2341.65 754.051 -791.407 -169.558 -46.4042 -174.001 4.96495 0.116731 0.585492 4.96514 0.0792385 0.591733 4.96579 0.00479653 0.596995 4.96531 0.0990189 0.588746 -21.4763 -0.80906 0.197968 -21.4806 -1.65669 -0.17432 -0.0 0.0 -0.0 5.20074 13.3603 10.1722 -4.45397 -25.7146 51.5208 1.69505 -40.016 0.617253 -7.15773 -0.306495 0.86158 -2.78374 5.66625 -16.0808 -0.0 0.0 -0.0 5.0692 15.334 -8.96714 -34.9754 20.5585 -68.1428 0.56769 15.707 -0.0783047 58.0669 1.60488 6.92676 0.458258 -12.0292 -7.87967 0.0 0.0 0.0 7.61703 0.487771 9.32156 -7.00962 0.224499 1.05168 27.0422 20.3273 -3.67034 36.0077 -0.0 -0.0 -0.0 0.0 -0.0 40.4825 11.1031 1.73001 -37.471 0.313764 -5.64097 -24.3445 -23.4015 -3.78678 26.6758 -0.0 -0.0 0.0 0.0 0.0 
2354.6 751.614 -786.16 -168.803 -46.4467 -173.229 4.80995 0.147195 0.424819 4.81005 0.119864 0.433324 4.81088 0.0636657 0.445066 4.81063 0.133156 0.429426 -19.8228 -1.15521 -0.876679 -19.8249 -1.77869 -1.29243 -0.0 0.0 -0.0 5.29811 13.671 10.331 -3.83092 -27.3683 51.468 1.76352 -41.1366 0.661794 -7.88091 -0.343407 0.946383 -2.80041 7.21441 -15.3952 -0.0 0.0 -0.0 5.2692 15.4253 -9.38765 -35.2648 20.2702 -67.9587 0.536818 14.8919 -0.0701587 57.8067 1.5826 6.90195 0.240872 -12.8228 -6.80273 0.0 0.0 0.0 7.27857 0.0634678 9.33046 -5.80519 0.195114 0.86918 27.9823 20.3524 -3.78026 35.8536 -0.0 -0.0 -0.0 0.0 -0.0 41.7351 11.6277 0.882443 -34.0824 0.133823 -5.15249 -24.2948 -24.6924 -3.8026 24.4461 -0.0 -0.0 0.0 0.0 0.0 
2367.63 747.987 -780.656 -167.67 -46.4919 -172.177 4.73304 0.0893567 0.21939 4.73306 0.0752153 0.224631 4.73334 0.0456605 0.232447 4.73327 0.081798 0.222319 -20.42 -1.78621 -1.08695 -20.4288 -2.90055 -1.76659 -0.0 0.0 -0.0 5.25176 13.3935 10.2574 -3.30389 -27.5224 51.27 1.82075 -42.0448 0.699787 -8.25819 -0.363089 0.990439 -2.68623 6.99996 -14.7345 -0.0 0.0 -0.0 5.42571 15.2449 -9.73557 -35.1614 19.9537 -67.8033 0.464784 12.966 -0.0528162 57.6774 1.57157 6.88959 0.222178 -12.5689 -6.58498 0.0 0.0 0.0 7.48656 -0.986188 9.63239 -5.90315 0.197648 0.884001 30.3214 20.0142 -4.04013 36.2714 -0.0 -0.0 -0.0 0.0 -0.0 42.0598 12.4859 0.54771 -31.1764 0.00278874 -4.7259 -24.1808 -25.1023 -3.79266 23.1258 -0.0 -0.0 0.0 0.0 0.0 
2381.32 746.294 -775.852 -166.875 -47.6057 -171.976 4.67306 0.0795345 0.358094 4.67313 0.056587 0.362429 4.67344 0.00905773 0.366708 4.67325 0.0668584 0.360676 -18.1835 -2.62053 -0.0476403 -18.2141 -5.01626 -1.05522 -0.0 0.0 -0.0 5.47546 11.1793 10.6661 -2.96751 -27.4963 51.1974 1.8787 -42.9386 0.738934 -9.34563 -0.421441 1.1167 -2.68558 7.64358 -14.3999 -0.0 0.0 -0.0 5.62098 15.8465 -10.1098 -35.2882 19.9541 -68.4264 0.472115 13.1635 -0.0544733 58.6762 1.6575 6.98447 0.138995 -13.9017 -6.58034 0.0 0.0 0.0 7.82419 -1.80584 9.81905 -6.59382 0.214788 0.988606 31.9249 21.7694 -4.25079 36.0247 -0.0 -0.0 -0.0 0.0 -0.0 40.3166 13.3766 0.484484 -16.9872 -0.31934 -2.57775 -24.5818 -24.9022 -3.85162 18.9655 -0.0 -0.0 0.0 0.0 0.0 
2393.76 746.303 -766.008 -166.022 -48.469 -171.166 4.6423 0.103708 0.453871 4.64241 0.0746175 0.45955 4.64293 0.0140801 0.465356 4.64264 0.0873969 0.457292 -16.9459 -2.93943 0.758224 -16.9843 -6.0695 -0.361526 -0.0 0.0 -0.0 5.38476 10.7247 10.5128 -2.43639 -26.8959 51.1169 1.96748 -44.2592 0.800162 -10.0782 -0.462099 1.20113 -2.68401 8.70154 -13.8445 -0.0 0.0 -0.0 5.77445 15.6783 -10.4512 -35.3968 19.783 -69.2289 0.474534 13.2286 -0.0550257 59.2259 1.7055 7.03607 0.0823056 -14.8155 -6.5819 0.0 0.0 0.0 7.81737 -2.41888 9.80874 -7.73887 0.240422 1.16245 32.9838 22.9921 -4.3934 35.6259 -0.0 -0.0 -0.0 0.0 -0.0 38.699 14.0123 0.832066 -6.54633 -0.21365 -0.981408 -23.0035 -23.8841 -3.58599 16.3926 -0.0 -0.0 0.0 0.0 0.0 
